<?xml version="1.0" encoding="utf-8"?>
<!-- Generated by IcoMoon.io -->
<!DOCTYPE svg PUBLIC "-//W3C//DTD SVG 1.1//EN" "http://www.w3.org/Graphics/SVG/1.1/DTD/svg11.dtd">
<svg version="1.1" xmlns="http://www.w3.org/2000/svg" xmlns:xlink="http://www.w3.org/1999/xlink" width="512" height="512" viewBox="0 0 512 512">
<g id="icomoon-ignore">
</g>
<path d="M431.84 297.84c34.496 25.712 64.064 49.248 64.064 49.248l-42.096 73.824-76.080-33.584-70.496 41.232c-4.768 43.472-9.136 83.44-9.136 83.44h-84.192l-9.344-83.696-69.472-41.328-76.912 33.952-42.080-73.824c0 0 29.072-23.424 63.488-49.056v-84.144l-63.488-48.96 42.080-73.84 75.072 33.408 74.528-40.432 6.128-84.080h84.192l6.096 83.728 73.504 41.248 76.128-33.888 42.096 73.84-64.064 49.136v83.776zM256 192c-35.344 0-64 28.656-64 64s28.656 64 64 64 64-28.656 64-64-28.656-64-64-64z"></path>
</svg>
